<svg width="400" height="300" viewBox="0 0 400 300" fill="none" xmlns="http://www.w3.org/2000/svg">
  <rect width="400" height="300" fill="#1F2937"/>
  <circle cx="200" cy="150" r="50" fill="#F59E0B" opacity="0.2"/>
  <circle cx="200" cy="150" r="30" fill="#FBBF24" opacity="0.3"/>
  <circle cx="200" cy="150" r="15" fill="#FCD34D" opacity="0.5"/>
  <circle cx="200" cy="150" r="5" fill="#FDE68A"/>
  <path d="M200 100L205 110L215 110L208 118L210 128L200 123L190 128L192 118L185 110L195 110Z" fill="#F59E0B"/>
  <path d="M200 172L205 182L215 182L208 190L210 200L200 195L190 200L192 190L185 182L195 182Z" fill="#F59E0B"/>
  <path d="M172 150L182 155L182 165L174 158L164 160L169 150L164 140L174 142L182 135L182 145Z" fill="#F59E0B"/>
  <path d="M228 150L238 155L238 165L230 158L220 160L225 150L220 140L230 142L238 135L238 145Z" fill="#F59E0B"/>
  <text x="200" y="230" text-anchor="middle" fill="#9CA3AF" font-family="Arial" font-size="16">Mindfulness</text>
  <text x="200" y="250" text-anchor="middle" fill="#6B7280" font-family="Arial" font-size="12">Be present in the moment</text>
</svg>